<svg width="142" height="46" viewBox="0 0 142 46" fill="none" xmlns="http://www.w3.org/2000/svg">
<path fill-rule="evenodd" clip-rule="evenodd" d="M23 0C35.7025 0 46 10.2975 46 23C46 35.7025 35.7025 46 23 46C10.2975 46 0 35.7025 0 23C0 10.2975 10.2975 0 23 0ZM23 1C10.8497 1 1 10.8497 1 23C1 35.1503 10.8497 45 23 45C35.1503 45 45 35.1503 45 23C45 10.8497 35.1503 1 23 1ZM32.4452 12.4578C32.4452 16.8946 36.1438 17.0354 36.5548 17.0354C36.7945 17.0354 37 17.2467 37 17.4932C37 17.7749 36.7945 17.9862 36.5548 17.9862H36.5205C36.1096 17.9862 32.411 18.127 32.411 22.5638C32.411 22.8455 32.2055 23.0568 32 22.9864C31.7603 22.9864 31.5548 22.7751 31.5548 22.5286C31.5548 18.0918 27.8904 17.9509 27.4452 17.9509C27.2055 17.9509 27 17.7397 27 17.4932C27 17.2467 27.1712 17.0706 27.411 17.0354H27.4452C27.8562 17.0354 31.5548 16.8946 31.5548 12.4578C31.5548 12.2113 31.7603 12 32 12C32.2397 12 32.4452 12.2113 32.4452 12.4578ZM29.5 17.5284C30.4247 17.9509 31.3836 18.6904 31.9658 20.0285C32.5137 18.7608 33.4384 17.9509 34.4315 17.5284C33.5069 17.1058 32.5137 16.3664 31.9658 15.0283C31.4178 16.2959 30.4932 17.1058 29.5 17.5284ZM28.539 25.0151C28.6767 25.051 28.8488 25.1229 28.9176 25.2665C29.0209 25.4102 29.0209 25.5898 28.952 25.7335C28.8488 25.8771 28.7111 25.9849 28.539 25.9849C27.7473 25.9849 20.9665 26.3081 20.9665 34.5331C20.9665 34.7845 20.76 35 20.519 35C20.2781 35 20.0716 34.7845 20.0716 34.5331C20.0716 26.2722 13.2908 25.9849 12.4991 25.9849H12.4647C12.2926 25.9849 12.1205 25.8771 12.0516 25.7335C11.9828 25.5898 11.9828 25.4102 12.0516 25.2665C12.0621 25.2557 12.0725 25.2415 12.0838 25.226C12.11 25.1904 12.1413 25.1479 12.1893 25.1229C12.2582 25.051 12.3614 25.0151 12.4647 25.0151C13.2219 25.0151 20.0372 24.7278 20.0372 16.4669C20.0372 16.2155 20.2437 16 20.4846 16C20.7256 16 20.9321 16.2155 20.9321 16.4669C20.9321 24.7278 27.7473 25.0151 28.539 25.0151ZM15.115 25.482C17.0426 26.1285 19.4864 27.6011 20.4846 31.0132C21.4828 27.6011 23.9267 26.1285 25.8542 25.482C23.9267 24.8355 21.4828 23.3629 20.4846 19.9509C19.4864 23.3629 17.0426 24.8355 15.115 25.482Z" fill="black"/>
<path d="M57.4148 19H56.3068L59.5114 10.2727H60.6023L63.8068 19H62.6989L60.0909 11.6534H60.0227L57.4148 19ZM57.8239 15.5909H62.2898V16.5284H57.8239V15.5909ZM66.0355 10.2727V19H65.0298V10.2727H66.0355ZM69.3604 19L67.3661 12.4545H68.4229L69.8377 17.4659H69.9059L71.3036 12.4545H72.3775L73.7582 17.4489H73.8263L75.2411 12.4545H76.2979L74.3036 19H73.315L71.8832 13.9716H71.7809L70.3491 19H69.3604ZM79.5536 19.1534C79.1388 19.1534 78.7624 19.0753 78.4244 18.919C78.0863 18.7599 77.8178 18.5312 77.619 18.233C77.4201 17.9318 77.3207 17.5682 77.3207 17.142C77.3207 16.767 77.3945 16.4631 77.5423 16.2301C77.69 15.9943 77.8874 15.8097 78.1346 15.6761C78.3817 15.5426 78.6545 15.4432 78.9528 15.3778C79.2539 15.3097 79.5565 15.2557 79.8604 15.2159C80.2582 15.1648 80.5806 15.1264 80.8278 15.1009C81.0778 15.0724 81.2596 15.0256 81.3732 14.9602C81.4897 14.8949 81.5479 14.7812 81.5479 14.6193V14.5852C81.5479 14.1648 81.4329 13.8381 81.2028 13.6051C80.9755 13.3722 80.6303 13.2557 80.1673 13.2557C79.6871 13.2557 79.3107 13.3608 79.038 13.571C78.7653 13.7812 78.5735 14.0057 78.4627 14.2443L77.5082 13.9034C77.6786 13.5057 77.9059 13.196 78.19 12.9744C78.4769 12.75 78.7894 12.5937 79.1275 12.5057C79.4684 12.4148 79.8036 12.3693 80.1332 12.3693C80.3434 12.3693 80.5849 12.3949 80.8576 12.446C81.1332 12.4943 81.3988 12.5952 81.6545 12.7486C81.913 12.902 82.1275 13.1335 82.2979 13.4432C82.4684 13.7528 82.5536 14.1676 82.5536 14.6875V19H81.5479V18.1136H81.4968C81.4286 18.2557 81.315 18.4077 81.1559 18.5696C80.9968 18.7315 80.7852 18.8693 80.521 18.983C80.2567 19.0966 79.9343 19.1534 79.5536 19.1534ZM79.707 18.25C80.1048 18.25 80.44 18.1719 80.7127 18.0156C80.9883 17.8594 81.1957 17.6577 81.3349 17.4105C81.4769 17.1634 81.5479 16.9034 81.5479 16.6307V15.7102C81.5053 15.7614 81.4116 15.8082 81.2667 15.8509C81.1246 15.8906 80.9599 15.9261 80.7724 15.9574C80.5877 15.9858 80.4073 16.0114 80.2312 16.0341C80.0579 16.054 79.9173 16.071 79.8093 16.0852C79.5479 16.1193 79.3036 16.1747 79.0763 16.2514C78.8519 16.3253 78.6701 16.4375 78.5309 16.5881C78.3945 16.7358 78.3263 16.9375 78.3263 17.1932C78.3263 17.5426 78.4556 17.8068 78.7141 17.9858C78.9755 18.1619 79.3065 18.25 79.707 18.25ZM84.8026 21.4545C84.6321 21.4545 84.4801 21.4403 84.3466 21.4119C84.2131 21.3864 84.1207 21.3608 84.0696 21.3352L84.3253 20.4489C84.5696 20.5114 84.7855 20.5341 84.973 20.517C85.1605 20.5 85.3267 20.4162 85.4716 20.2656C85.6193 20.1179 85.7543 19.8778 85.8764 19.5455L86.0639 19.0341L83.6435 12.4545H84.7344L86.5412 17.6705H86.6094L88.4162 12.4545H89.5071L86.7287 19.9545C86.6037 20.2926 86.4489 20.5724 86.2642 20.794C86.0795 21.0185 85.8651 21.1847 85.6207 21.2926C85.3793 21.4006 85.1065 21.4545 84.8026 21.4545ZM95.4709 13.9205L94.5675 14.1761C94.5107 14.0256 94.4268 13.8793 94.3161 13.7372C94.2081 13.5923 94.0604 13.473 93.8729 13.3793C93.6854 13.2855 93.4453 13.2386 93.1527 13.2386C92.7521 13.2386 92.4183 13.331 92.1513 13.5156C91.8871 13.6974 91.755 13.929 91.755 14.2102C91.755 14.4602 91.8459 14.6577 92.0277 14.8026C92.2095 14.9474 92.4936 15.0682 92.88 15.1648L93.8516 15.4034C94.4368 15.5455 94.8729 15.7628 95.1598 16.0554C95.4467 16.3452 95.5902 16.7187 95.5902 17.1761C95.5902 17.5511 95.4822 17.8864 95.2663 18.1818C95.0533 18.4773 94.755 18.7102 94.3714 18.8807C93.9879 19.0511 93.5419 19.1364 93.0334 19.1364C92.3658 19.1364 91.8132 18.9915 91.3757 18.7017C90.9382 18.4119 90.6612 17.9886 90.5447 17.4318L91.4993 17.1932C91.5902 17.5455 91.7621 17.8097 92.0149 17.9858C92.2706 18.1619 92.6044 18.25 93.0163 18.25C93.4851 18.25 93.8572 18.1506 94.1328 17.9517C94.4112 17.75 94.5504 17.5085 94.5504 17.2273C94.5504 17 94.4709 16.8097 94.3118 16.6562C94.1527 16.5 93.9084 16.3835 93.5788 16.3068L92.4879 16.0511C91.8885 15.9091 91.4482 15.6889 91.1669 15.3906C90.8885 15.0895 90.7493 14.7131 90.7493 14.2614C90.7493 13.892 90.853 13.5653 91.0604 13.2812C91.2706 12.9972 91.5561 12.7741 91.9169 12.6122C92.2805 12.4503 92.6925 12.3693 93.1527 12.3693C93.8004 12.3693 94.3089 12.5114 94.6783 12.7955C95.0504 13.0795 95.3146 13.4545 95.4709 13.9205ZM103.394 12.4545V13.3068H99.8654V12.4545H103.394ZM100.922 19V11.5511C100.922 11.1761 101.01 10.8636 101.186 10.6136C101.363 10.3636 101.591 10.1761 101.873 10.0511C102.154 9.92614 102.451 9.86364 102.763 9.86364C103.01 9.86364 103.212 9.88352 103.368 9.9233C103.525 9.96307 103.641 10 103.718 10.0341L103.428 10.9034C103.377 10.8864 103.306 10.8651 103.215 10.8395C103.127 10.8139 103.01 10.8011 102.865 10.8011C102.533 10.8011 102.293 10.8849 102.145 11.0526C102 11.2202 101.928 11.4659 101.928 11.7898V19H100.922ZM104.803 19V12.4545H105.775V13.4432H105.843C105.962 13.1193 106.178 12.8565 106.491 12.6548C106.803 12.4531 107.156 12.3523 107.548 12.3523C107.621 12.3523 107.714 12.3537 107.825 12.3565C107.935 12.3594 108.019 12.3636 108.076 12.3693V13.392C108.042 13.3835 107.964 13.3707 107.842 13.3537C107.722 13.3338 107.596 13.3239 107.462 13.3239C107.144 13.3239 106.86 13.3906 106.61 13.5241C106.363 13.6548 106.167 13.8366 106.022 14.0696C105.88 14.2997 105.809 14.5625 105.809 14.858V19H104.803ZM111.813 19.1364C111.183 19.1364 110.638 18.9972 110.181 18.7188C109.727 18.4375 109.376 18.0455 109.129 17.5426C108.884 17.0369 108.762 16.4489 108.762 15.7784C108.762 15.108 108.884 14.517 109.129 14.0057C109.376 13.4915 109.719 13.0909 110.16 12.804C110.603 12.5142 111.12 12.3693 111.711 12.3693C112.052 12.3693 112.388 12.4261 112.721 12.5398C113.053 12.6534 113.356 12.8381 113.629 13.0938C113.901 13.3466 114.119 13.6818 114.281 14.0994C114.442 14.517 114.523 15.0312 114.523 15.642V16.0682H109.478V15.1989H113.501C113.501 14.8295 113.427 14.5 113.279 14.2102C113.134 13.9205 112.927 13.6918 112.657 13.5241C112.39 13.3565 112.075 13.2727 111.711 13.2727C111.31 13.2727 110.964 13.3722 110.671 13.571C110.381 13.767 110.158 14.0227 110.002 14.3381C109.846 14.6534 109.768 14.9915 109.768 15.3523V15.9318C109.768 16.4261 109.853 16.8452 110.023 17.1889C110.197 17.5298 110.437 17.7898 110.744 17.9688C111.05 18.1449 111.407 18.233 111.813 18.233C112.077 18.233 112.316 18.196 112.529 18.1222C112.745 18.0455 112.931 17.9318 113.087 17.7812C113.244 17.6278 113.364 17.4375 113.45 17.2102L114.421 17.483C114.319 17.8125 114.147 18.1023 113.906 18.3523C113.664 18.5994 113.366 18.7926 113.011 18.9318C112.656 19.0682 112.256 19.1364 111.813 19.1364ZM120.69 13.9205L119.786 14.1761C119.729 14.0256 119.646 13.8793 119.535 13.7372C119.427 13.5923 119.279 13.473 119.092 13.3793C118.904 13.2855 118.664 13.2386 118.371 13.2386C117.971 13.2386 117.637 13.331 117.37 13.5156C117.106 13.6974 116.974 13.929 116.974 14.2102C116.974 14.4602 117.065 14.6577 117.246 14.8026C117.428 14.9474 117.712 15.0682 118.099 15.1648L119.07 15.4034C119.656 15.5455 120.092 15.7628 120.379 16.0554C120.665 16.3452 120.809 16.7187 120.809 17.1761C120.809 17.5511 120.701 17.8864 120.485 18.1818C120.272 18.4773 119.974 18.7102 119.59 18.8807C119.207 19.0511 118.761 19.1364 118.252 19.1364C117.585 19.1364 117.032 18.9915 116.594 18.7017C116.157 18.4119 115.88 17.9886 115.763 17.4318L116.718 17.1932C116.809 17.5455 116.981 17.8097 117.234 17.9858C117.489 18.1619 117.823 18.25 118.235 18.25C118.704 18.25 119.076 18.1506 119.352 17.9517C119.63 17.75 119.769 17.5085 119.769 17.2273C119.769 17 119.69 16.8097 119.531 16.6562C119.371 16.5 119.127 16.3835 118.798 16.3068L117.707 16.0511C117.107 15.9091 116.667 15.6889 116.386 15.3906C116.107 15.0895 115.968 14.7131 115.968 14.2614C115.968 13.892 116.072 13.5653 116.279 13.2812C116.489 12.9972 116.775 12.7741 117.136 12.6122C117.499 12.4503 117.911 12.3693 118.371 12.3693C119.019 12.3693 119.528 12.5114 119.897 12.7955C120.269 13.0795 120.533 13.4545 120.69 13.9205ZM123.328 15.0625V19H122.323V10.2727H123.328V13.4773H123.414C123.567 13.1392 123.797 12.8707 124.104 12.6719C124.414 12.4702 124.826 12.3693 125.34 12.3693C125.786 12.3693 126.176 12.4588 126.512 12.6378C126.847 12.8139 127.107 13.0852 127.292 13.4517C127.479 13.8153 127.573 14.2784 127.573 14.8409V19H126.567V14.9091C126.567 14.3892 126.432 13.9872 126.162 13.7031C125.895 13.4162 125.525 13.2727 125.05 13.2727C124.721 13.2727 124.425 13.3423 124.164 13.4815C123.905 13.6207 123.701 13.8239 123.55 14.0909C123.402 14.358 123.328 14.6818 123.328 15.0625ZM59.8352 28.4545V29.3068H56.3068V28.4545H59.8352ZM57.3636 35V27.5511C57.3636 27.1761 57.4517 26.8636 57.6278 26.6136C57.804 26.3636 58.0327 26.1761 58.3139 26.0511C58.5952 25.9261 58.892 25.8636 59.2045 25.8636C59.4517 25.8636 59.6534 25.8835 59.8097 25.9233C59.9659 25.9631 60.0824 26 60.1591 26.0341L59.8693 26.9034C59.8182 26.8864 59.7472 26.8651 59.6562 26.8395C59.5682 26.8139 59.4517 26.8011 59.3068 26.8011C58.9744 26.8011 58.7344 26.8849 58.5866 27.0526C58.4418 27.2202 58.3693 27.4659 58.3693 27.7898V35H57.3636ZM62.2504 26.2727V35H61.2447V26.2727H62.2504ZM66.7514 35.1364C66.1605 35.1364 65.642 34.9957 65.196 34.7145C64.7528 34.4332 64.4062 34.0398 64.1562 33.5341C63.9091 33.0284 63.7855 32.4375 63.7855 31.7614C63.7855 31.0795 63.9091 30.4844 64.1562 29.9759C64.4062 29.4673 64.7528 29.0724 65.196 28.7912C65.642 28.5099 66.1605 28.3693 66.7514 28.3693C67.3423 28.3693 67.8594 28.5099 68.3026 28.7912C68.7486 29.0724 69.0952 29.4673 69.3423 29.9759C69.5923 30.4844 69.7173 31.0795 69.7173 31.7614C69.7173 32.4375 69.5923 33.0284 69.3423 33.5341C69.0952 34.0398 68.7486 34.4332 68.3026 34.7145C67.8594 34.9957 67.3423 35.1364 66.7514 35.1364ZM66.7514 34.233C67.2003 34.233 67.5696 34.1179 67.8594 33.8878C68.1491 33.6577 68.3636 33.3551 68.5028 32.9801C68.642 32.6051 68.7116 32.1989 68.7116 31.7614C68.7116 31.3239 68.642 30.9162 68.5028 30.5384C68.3636 30.1605 68.1491 29.8551 67.8594 29.6222C67.5696 29.3892 67.2003 29.2727 66.7514 29.2727C66.3026 29.2727 65.9332 29.3892 65.6435 29.6222C65.3537 29.8551 65.1392 30.1605 65 30.5384C64.8608 30.9162 64.7912 31.3239 64.7912 31.7614C64.7912 32.1989 64.8608 32.6051 65 32.9801C65.1392 33.3551 65.3537 33.6577 65.6435 33.8878C65.9332 34.1179 66.3026 34.233 66.7514 34.233ZM72.5128 35L70.5185 28.4545H71.5753L72.9901 33.4659H73.0582L74.456 28.4545H75.5298L76.9105 33.4489H76.9787L78.3935 28.4545H79.4503L77.456 35H76.4673L75.0355 29.9716H74.9332L73.5014 35H72.5128ZM83.3015 35.1364C82.6708 35.1364 82.1268 34.9972 81.6694 34.7188C81.2148 34.4375 80.864 34.0455 80.6168 33.5426C80.3725 33.0369 80.2504 32.4489 80.2504 31.7784C80.2504 31.108 80.3725 30.517 80.6168 30.0057C80.864 29.4915 81.2077 29.0909 81.6481 28.804C82.0913 28.5142 82.6083 28.3693 83.1992 28.3693C83.5401 28.3693 83.8768 28.4261 84.2092 28.5398C84.5415 28.6534 84.8441 28.8381 85.1168 29.0938C85.3896 29.3466 85.6069 29.6818 85.7688 30.0994C85.9308 30.517 86.0117 31.0312 86.0117 31.642V32.0682H80.9663V31.1989H84.989C84.989 30.8295 84.9151 30.5 84.7674 30.2102C84.6225 29.9205 84.4151 29.6918 84.1452 29.5241C83.8782 29.3565 83.5629 29.2727 83.1992 29.2727C82.7987 29.2727 82.4521 29.3722 82.1594 29.571C81.8697 29.767 81.6467 30.0227 81.4904 30.3381C81.3342 30.6534 81.256 30.9915 81.256 31.3523V31.9318C81.256 32.4261 81.3413 32.8452 81.5117 33.1889C81.685 33.5298 81.9251 33.7898 82.2319 33.9688C82.5387 34.1449 82.8952 34.233 83.3015 34.233C83.5657 34.233 83.8043 34.196 84.0174 34.1222C84.2333 34.0455 84.4194 33.9318 84.5756 33.7812C84.7319 33.6278 84.8526 33.4375 84.9379 33.2102L85.9094 33.483C85.8072 33.8125 85.6353 34.1023 85.3938 34.3523C85.1523 34.5994 84.854 34.7926 84.4989 34.9318C84.1438 35.0682 83.7447 35.1364 83.3015 35.1364ZM87.5415 35V28.4545H88.5131V29.4432H88.5813C88.7006 29.1193 88.9165 28.8565 89.229 28.6548C89.5415 28.4531 89.8938 28.3523 90.2859 28.3523C90.3597 28.3523 90.4521 28.3537 90.5629 28.3565C90.6737 28.3594 90.7575 28.3636 90.8143 28.3693V29.392C90.7802 29.3835 90.7021 29.3707 90.5799 29.3537C90.4606 29.3338 90.3342 29.3239 90.2006 29.3239C89.8825 29.3239 89.5984 29.3906 89.3484 29.5241C89.1012 29.6548 88.9052 29.8366 88.7603 30.0696C88.6183 30.2997 88.5472 30.5625 88.5472 30.858V35H87.5415ZM96.6428 29.9205L95.7393 30.1761C95.6825 30.0256 95.5987 29.8793 95.4879 29.7372C95.38 29.5923 95.2322 29.473 95.0447 29.3793C94.8572 29.2855 94.6172 29.2386 94.3246 29.2386C93.924 29.2386 93.5902 29.331 93.3232 29.5156C93.0589 29.6974 92.9268 29.929 92.9268 30.2102C92.9268 30.4602 93.0178 30.6577 93.1996 30.8026C93.3814 30.9474 93.6655 31.0682 94.0518 31.1648L95.0234 31.4034C95.6087 31.5455 96.0447 31.7628 96.3317 32.0554C96.6186 32.3452 96.7621 32.7187 96.7621 33.1761C96.7621 33.5511 96.6541 33.8864 96.4382 34.1818C96.2251 34.4773 95.9268 34.7102 95.5433 34.8807C95.1598 35.0511 94.7138 35.1364 94.2053 35.1364C93.5376 35.1364 92.9851 34.9915 92.5476 34.7017C92.1101 34.4119 91.8331 33.9886 91.7166 33.4318L92.6712 33.1932C92.7621 33.5455 92.9339 33.8097 93.1868 33.9858C93.4425 34.1619 93.7763 34.25 94.1882 34.25C94.657 34.25 95.0291 34.1506 95.3047 33.9517C95.5831 33.75 95.7223 33.5085 95.7223 33.2273C95.7223 33 95.6428 32.8097 95.4837 32.6562C95.3246 32.5 95.0803 32.3835 94.7507 32.3068L93.6598 32.0511C93.0604 31.9091 92.62 31.6889 92.3388 31.3906C92.0604 31.0895 91.9212 30.7131 91.9212 30.2614C91.9212 29.892 92.0249 29.5653 92.2322 29.2812C92.4425 28.9972 92.728 28.7741 93.0888 28.6122C93.4524 28.4503 93.8643 28.3693 94.3246 28.3693C94.9723 28.3693 95.4808 28.5114 95.8501 28.7955C96.2223 29.0795 96.4865 29.4545 96.6428 29.9205Z" fill="black"/>
</svg>
