<svg width="142" height="46" viewBox="0 0 142 46" fill="none" xmlns="http://www.w3.org/2000/svg">
<path fill-rule="evenodd" clip-rule="evenodd" d="M23 0C35.7025 0 46 10.2975 46 23C46 35.7025 35.7025 46 23 46C10.2975 46 0 35.7025 0 23C0 10.2975 10.2975 0 23 0ZM23 1C10.8497 1 1 10.8497 1 23C1 35.1503 10.8497 45 23 45C35.1503 45 45 35.1503 45 23C45 10.8497 35.1503 1 23 1ZM14.68 25.944C14.6427 25.9813 14.5947 26 14.536 26H13.816C13.7627 26 13.7173 25.9813 13.68 25.944C13.6427 25.9067 13.624 25.8613 13.624 25.808V20.6C13.624 20.5413 13.6413 20.4933 13.676 20.456C13.7107 20.4187 13.7573 20.4 13.816 20.4H17.296C17.3547 20.4 17.4027 20.4187 17.44 20.456C17.4773 20.4933 17.496 20.5413 17.496 20.6V21.176C17.496 21.2293 17.4773 21.2747 17.44 21.312C17.4027 21.3493 17.3547 21.368 17.296 21.368H14.736V22.872H17.136C17.1947 22.872 17.2427 22.8907 17.28 22.928C17.3173 22.9653 17.336 23.0107 17.336 23.064V23.64C17.336 23.6933 17.3173 23.7387 17.28 23.776C17.2427 23.8133 17.1947 23.832 17.136 23.832H14.736V25.808C14.736 25.8613 14.7173 25.9067 14.68 25.944ZM19.512 25.944C19.4747 25.9813 19.4267 26 19.368 26H18.632C18.5787 26 18.5333 25.9813 18.496 25.944C18.4587 25.9067 18.44 25.8613 18.44 25.808V20.6C18.44 20.5413 18.4573 20.4933 18.492 20.456C18.5267 20.4187 18.5733 20.4 18.632 20.4H20.704C21.36 20.4 21.8733 20.552 22.244 20.856C22.6147 21.16 22.8 21.592 22.8 22.152C22.8 22.5413 22.7067 22.868 22.52 23.132C22.3333 23.396 22.072 23.5867 21.736 23.704L22.896 25.744C22.912 25.776 22.92 25.8053 22.92 25.832C22.92 25.88 22.9027 25.92 22.868 25.952C22.8333 25.984 22.7947 26 22.752 26H22.016C21.9307 26 21.864 25.98 21.816 25.94C21.768 25.9 21.7253 25.848 21.688 25.784L20.664 23.888H19.568V25.808C19.568 25.8613 19.5493 25.9067 19.512 25.944ZM19.568 22.976H20.68C21 22.976 21.24 22.9053 21.4 22.764C21.56 22.6227 21.64 22.416 21.64 22.144C21.64 21.872 21.56 21.6627 21.4 21.516C21.24 21.3693 21 21.296 20.68 21.296H19.568V22.976ZM27.816 25.808C27.816 25.8667 27.7973 25.9133 27.76 25.948C27.7227 25.9827 27.6747 26 27.616 26H24.024C23.9707 26 23.9253 25.9813 23.888 25.944C23.8507 25.9067 23.832 25.8613 23.832 25.808V20.6C23.832 20.5413 23.8493 20.4933 23.884 20.456C23.9187 20.4187 23.9653 20.4 24.024 20.4H27.552C27.6107 20.4 27.6587 20.4187 27.696 20.456C27.7333 20.4933 27.752 20.5413 27.752 20.6V21.136C27.752 21.1947 27.7333 21.2413 27.696 21.276C27.6587 21.3107 27.6107 21.328 27.552 21.328H24.928V22.728H27.376C27.4347 22.728 27.4827 22.7467 27.52 22.784C27.5573 22.8213 27.576 22.8693 27.576 22.928V23.432C27.576 23.4907 27.5573 23.5373 27.52 23.572C27.4827 23.6067 27.4347 23.624 27.376 23.624H24.928V25.072H27.616C27.6747 25.072 27.7227 25.0893 27.76 25.124C27.7973 25.1587 27.816 25.2053 27.816 25.264V25.808ZM32.8 25.808C32.8 25.8667 32.7813 25.9133 32.744 25.948C32.7067 25.9827 32.6587 26 32.6 26H29.008C28.9547 26 28.9093 25.9813 28.872 25.944C28.8347 25.9067 28.816 25.8613 28.816 25.808V20.6C28.816 20.5413 28.8333 20.4933 28.868 20.456C28.9027 20.4187 28.9493 20.4 29.008 20.4H32.536C32.5947 20.4 32.6427 20.4187 32.68 20.456C32.7173 20.4933 32.736 20.5413 32.736 20.6V21.136C32.736 21.1947 32.7173 21.2413 32.68 21.276C32.6427 21.3107 32.5947 21.328 32.536 21.328H29.912V22.728H32.36C32.4187 22.728 32.4667 22.7467 32.504 22.784C32.5413 22.8213 32.56 22.8693 32.56 22.928V23.432C32.56 23.4907 32.5413 23.5373 32.504 23.572C32.4667 23.6067 32.4187 23.624 32.36 23.624H29.912V25.072H32.6C32.6587 25.072 32.7067 25.0893 32.744 25.124C32.7813 25.1587 32.8 25.2053 32.8 25.264V25.808Z" fill="black"/>
<path d="M57.0568 19V10.2727H60.108C60.7159 10.2727 61.2173 10.3778 61.6122 10.5881C62.0071 10.7955 62.3011 11.0753 62.4943 11.4276C62.6875 11.777 62.7841 12.1648 62.7841 12.5909C62.7841 12.9659 62.7173 13.2756 62.5838 13.5199C62.4531 13.7642 62.2798 13.9574 62.0639 14.0994C61.8509 14.2415 61.6193 14.3466 61.3693 14.4148V14.5C61.6364 14.517 61.9048 14.6108 62.1747 14.7812C62.4446 14.9517 62.6705 15.196 62.8523 15.5142C63.0341 15.8324 63.125 16.2216 63.125 16.6818C63.125 17.1193 63.0256 17.5128 62.8267 17.8622C62.6278 18.2116 62.3139 18.4886 61.8849 18.6932C61.456 18.8977 60.8977 19 60.2102 19H57.0568ZM58.1136 18.0625H60.2102C60.9006 18.0625 61.3906 17.929 61.6804 17.6619C61.973 17.392 62.1193 17.0653 62.1193 16.6818C62.1193 16.3864 62.044 16.1136 61.8935 15.8636C61.7429 15.6108 61.5284 15.4091 61.25 15.2585C60.9716 15.1051 60.642 15.0284 60.2614 15.0284H58.1136V18.0625ZM58.1136 14.108H60.0739C60.392 14.108 60.679 14.0455 60.9347 13.9205C61.1932 13.7955 61.3977 13.6193 61.5483 13.392C61.7017 13.1648 61.7784 12.8977 61.7784 12.5909C61.7784 12.2074 61.6449 11.8821 61.3778 11.6151C61.1108 11.3452 60.6875 11.2102 60.108 11.2102H58.1136V14.108ZM67.4695 19.1364C66.8388 19.1364 66.2947 18.9972 65.8374 18.7188C65.3828 18.4375 65.032 18.0455 64.7848 17.5426C64.5405 17.0369 64.4183 16.4489 64.4183 15.7784C64.4183 15.108 64.5405 14.517 64.7848 14.0057C65.032 13.4915 65.3757 13.0909 65.8161 12.804C66.2592 12.5142 66.7763 12.3693 67.3672 12.3693C67.7081 12.3693 68.0447 12.4261 68.3771 12.5398C68.7095 12.6534 69.0121 12.8381 69.2848 13.0938C69.5575 13.3466 69.7749 13.6818 69.9368 14.0994C70.0987 14.517 70.1797 15.0312 70.1797 15.642V16.0682H65.1342V15.1989H69.157C69.157 14.8295 69.0831 14.5 68.9354 14.2102C68.7905 13.9205 68.5831 13.6918 68.3132 13.5241C68.0462 13.3565 67.7308 13.2727 67.3672 13.2727C66.9666 13.2727 66.62 13.3722 66.3274 13.571C66.0376 13.767 65.8146 14.0227 65.6584 14.3381C65.5021 14.6534 65.424 14.9915 65.424 15.3523V15.9318C65.424 16.4261 65.5092 16.8452 65.6797 17.1889C65.853 17.5298 66.093 17.7898 66.3999 17.9688C66.7067 18.1449 67.0632 18.233 67.4695 18.233C67.7337 18.233 67.9723 18.196 68.1854 18.1222C68.4013 18.0455 68.5874 17.9318 68.7436 17.7812C68.8999 17.6278 69.0206 17.4375 69.1058 17.2102L70.0774 17.483C69.9751 17.8125 69.8033 18.1023 69.5618 18.3523C69.3203 18.5994 69.022 18.7926 68.6669 18.9318C68.3118 19.0682 67.9126 19.1364 67.4695 19.1364ZM72.7152 15.0625V19H71.7095V12.4545H72.6811V13.4773H72.7663C72.9197 13.1449 73.1527 12.8778 73.4652 12.6761C73.7777 12.4716 74.1811 12.3693 74.6754 12.3693C75.1186 12.3693 75.5064 12.4602 75.8388 12.642C76.1712 12.821 76.4297 13.0938 76.6143 13.4602C76.799 13.8239 76.8913 14.2841 76.8913 14.8409V19H75.8857V14.9091C75.8857 14.3949 75.7521 13.9943 75.4851 13.7074C75.218 13.4176 74.8516 13.2727 74.3857 13.2727C74.0646 13.2727 73.7777 13.3423 73.5249 13.4815C73.2749 13.6207 73.0774 13.8239 72.9325 14.0909C72.7876 14.358 72.7152 14.6818 72.7152 15.0625ZM81.4734 19.1364C80.8427 19.1364 80.2987 18.9972 79.8413 18.7188C79.3867 18.4375 79.0359 18.0455 78.7887 17.5426C78.5444 17.0369 78.4222 16.4489 78.4222 15.7784C78.4222 15.108 78.5444 14.517 78.7887 14.0057C79.0359 13.4915 79.3796 13.0909 79.82 12.804C80.2631 12.5142 80.7802 12.3693 81.3711 12.3693C81.712 12.3693 82.0487 12.4261 82.381 12.5398C82.7134 12.6534 83.016 12.8381 83.2887 13.0938C83.5614 13.3466 83.7788 13.6818 83.9407 14.0994C84.1026 14.517 84.1836 15.0312 84.1836 15.642V16.0682H79.1381V15.1989H83.1609C83.1609 14.8295 83.087 14.5 82.9393 14.2102C82.7944 13.9205 82.587 13.6918 82.3171 13.5241C82.0501 13.3565 81.7347 13.2727 81.3711 13.2727C80.9705 13.2727 80.6239 13.3722 80.3313 13.571C80.0415 13.767 79.8185 14.0227 79.6623 14.3381C79.506 14.6534 79.4279 14.9915 79.4279 15.3523V15.9318C79.4279 16.4261 79.5131 16.8452 79.6836 17.1889C79.8569 17.5298 80.0969 17.7898 80.4038 17.9688C80.7106 18.1449 81.0671 18.233 81.4734 18.233C81.7376 18.233 81.9762 18.196 82.1893 18.1222C82.4052 18.0455 82.5913 17.9318 82.7475 17.7812C82.9038 17.6278 83.0245 17.4375 83.1097 17.2102L84.0813 17.483C83.979 17.8125 83.8072 18.1023 83.5657 18.3523C83.3242 18.5994 83.0259 18.7926 82.6708 18.9318C82.3157 19.0682 81.9165 19.1364 81.4734 19.1364ZM88.6282 12.4545V13.3068H85.0998V12.4545H88.6282ZM86.1566 19V11.5511C86.1566 11.1761 86.2447 10.8636 86.4208 10.6136C86.5969 10.3636 86.8256 10.1761 87.1069 10.0511C87.3881 9.92614 87.685 9.86364 87.9975 9.86364C88.2447 9.86364 88.4464 9.88352 88.6026 9.9233C88.7589 9.96307 88.8754 10 88.9521 10.0341L88.6623 10.9034C88.6112 10.8864 88.5401 10.8651 88.4492 10.8395C88.3612 10.8139 88.2447 10.8011 88.0998 10.8011C87.7674 10.8011 87.5273 10.8849 87.3796 11.0526C87.2347 11.2202 87.1623 11.4659 87.1623 11.7898V19H86.1566ZM90.0376 19V12.4545H91.0433V19H90.0376ZM90.549 11.3636C90.353 11.3636 90.1839 11.2969 90.0419 11.1634C89.9027 11.0298 89.8331 10.8693 89.8331 10.6818C89.8331 10.4943 89.9027 10.3338 90.0419 10.2003C90.1839 10.0668 90.353 10 90.549 10C90.745 10 90.9126 10.0668 91.0518 10.2003C91.1939 10.3338 91.2649 10.4943 91.2649 10.6818C91.2649 10.8693 91.1939 11.0298 91.0518 11.1634C90.9126 11.2969 90.745 11.3636 90.549 11.3636ZM95.7319 12.4545V13.3068H92.3398V12.4545H95.7319ZM93.3285 10.8864H94.3342V17.125C94.3342 17.4091 94.3754 17.6222 94.4577 17.7642C94.543 17.9034 94.6509 17.9972 94.7816 18.0455C94.9151 18.0909 95.0558 18.1136 95.2035 18.1136C95.3143 18.1136 95.4052 18.108 95.4762 18.0966C95.5472 18.0824 95.604 18.071 95.6467 18.0625L95.8512 18.9659C95.783 18.9915 95.6879 19.017 95.5657 19.0426C95.4435 19.071 95.2887 19.0852 95.1012 19.0852C94.8171 19.0852 94.5387 19.0241 94.266 18.902C93.9961 18.7798 93.7717 18.5938 93.5927 18.3438C93.4165 18.0938 93.3285 17.7784 93.3285 17.3977V10.8864ZM101.764 13.9205L100.86 14.1761C100.804 14.0256 100.72 13.8793 100.609 13.7372C100.501 13.5923 100.353 13.473 100.166 13.3793C99.9783 13.2855 99.7383 13.2386 99.4457 13.2386C99.0451 13.2386 98.7113 13.331 98.4442 13.5156C98.18 13.6974 98.0479 13.929 98.0479 14.2102C98.0479 14.4602 98.1388 14.6577 98.3207 14.8026C98.5025 14.9474 98.7866 15.0682 99.1729 15.1648L100.145 15.4034C100.73 15.5455 101.166 15.7628 101.453 16.0554C101.74 16.3452 101.883 16.7187 101.883 17.1761C101.883 17.5511 101.775 17.8864 101.559 18.1818C101.346 18.4773 101.048 18.7102 100.664 18.8807C100.281 19.0511 99.8349 19.1364 99.3263 19.1364C98.6587 19.1364 98.1062 18.9915 97.6687 18.7017C97.2312 18.4119 96.9542 17.9886 96.8377 17.4318L97.7923 17.1932C97.8832 17.5455 98.055 17.8097 98.3079 17.9858C98.5636 18.1619 98.8974 18.25 99.3093 18.25C99.7781 18.25 100.15 18.1506 100.426 17.9517C100.704 17.75 100.843 17.5085 100.843 17.2273C100.843 17 100.764 16.8097 100.605 16.6562C100.446 16.5 100.201 16.3835 99.8718 16.3068L98.7809 16.0511C98.1815 15.9091 97.7411 15.6889 97.4599 15.3906C97.1815 15.0895 97.0423 14.7131 97.0423 14.2614C97.0423 13.892 97.146 13.5653 97.3533 13.2812C97.5636 12.9972 97.8491 12.7741 98.2099 12.6122C98.5735 12.4503 98.9854 12.3693 99.4457 12.3693C100.093 12.3693 100.602 12.5114 100.971 12.7955C101.343 13.0795 101.608 13.4545 101.764 13.9205ZM59.392 37.1364C58.8466 37.1364 58.3651 36.9986 57.9474 36.723C57.5298 36.4446 57.2031 36.0526 56.9673 35.5469C56.7315 35.0384 56.6136 34.4375 56.6136 33.7443C56.6136 33.0568 56.7315 32.4602 56.9673 31.9545C57.2031 31.4489 57.5313 31.0582 57.9517 30.7827C58.3722 30.5071 58.858 30.3693 59.4091 30.3693C59.8352 30.3693 60.1719 30.4403 60.419 30.5824C60.669 30.7216 60.8594 30.8807 60.9901 31.0597C61.1236 31.2358 61.2273 31.3807 61.3011 31.4943H61.3864V28.2727H62.392V37H61.4205V35.9943H61.3011C61.2273 36.1136 61.1222 36.2642 60.9858 36.446C60.8494 36.625 60.6548 36.7855 60.402 36.9276C60.1491 37.0668 59.8125 37.1364 59.392 37.1364ZM59.5284 36.233C59.9318 36.233 60.2727 36.1278 60.5511 35.9176C60.8295 35.7045 61.0412 35.4105 61.1861 35.0355C61.331 34.6577 61.4034 34.2216 61.4034 33.7273C61.4034 33.2386 61.3324 32.8111 61.1903 32.4446C61.0483 32.0753 60.8381 31.7884 60.5597 31.5838C60.2813 31.3764 59.9375 31.2727 59.5284 31.2727C59.1023 31.2727 58.7472 31.3821 58.4631 31.6009C58.1818 31.8168 57.9702 32.1108 57.8281 32.483C57.6889 32.8523 57.6193 33.267 57.6193 33.7273C57.6193 34.1932 57.6903 34.6165 57.8324 34.9972C57.9773 35.375 58.1903 35.6761 58.4716 35.9006C58.7557 36.1222 59.108 36.233 59.5284 36.233ZM67.1179 37.1364C66.4872 37.1364 65.9432 36.9972 65.4858 36.7188C65.0312 36.4375 64.6804 36.0455 64.4332 35.5426C64.1889 35.0369 64.0668 34.4489 64.0668 33.7784C64.0668 33.108 64.1889 32.517 64.4332 32.0057C64.6804 31.4915 65.0241 31.0909 65.4645 30.804C65.9077 30.5142 66.4247 30.3693 67.0156 30.3693C67.3565 30.3693 67.6932 30.4261 68.0256 30.5398C68.358 30.6534 68.6605 30.8381 68.9332 31.0938C69.206 31.3466 69.4233 31.6818 69.5852 32.0994C69.7472 32.517 69.8281 33.0312 69.8281 33.642V34.0682H64.7827V33.1989H68.8054C68.8054 32.8295 68.7315 32.5 68.5838 32.2102C68.4389 31.9205 68.2315 31.6918 67.9616 31.5241C67.6946 31.3565 67.3793 31.2727 67.0156 31.2727C66.6151 31.2727 66.2685 31.3722 65.9759 31.571C65.6861 31.767 65.4631 32.0227 65.3068 32.3381C65.1506 32.6534 65.0724 32.9915 65.0724 33.3523V33.9318C65.0724 34.4261 65.1577 34.8452 65.3281 35.1889C65.5014 35.5298 65.7415 35.7898 66.0483 35.9688C66.3551 36.1449 66.7116 36.233 67.1179 36.233C67.3821 36.233 67.6207 36.196 67.8338 36.1222C68.0497 36.0455 68.2358 35.9318 68.392 35.7812C68.5483 35.6278 68.669 35.4375 68.7543 35.2102L69.7259 35.483C69.6236 35.8125 69.4517 36.1023 69.2102 36.3523C68.9688 36.5994 68.6705 36.7926 68.3153 36.9318C67.9602 37.0682 67.5611 37.1364 67.1179 37.1364ZM75.9943 31.9205L75.0909 32.1761C75.0341 32.0256 74.9503 31.8793 74.8395 31.7372C74.7315 31.5923 74.5838 31.473 74.3963 31.3793C74.2088 31.2855 73.9688 31.2386 73.6761 31.2386C73.2756 31.2386 72.9418 31.331 72.6747 31.5156C72.4105 31.6974 72.2784 31.929 72.2784 32.2102C72.2784 32.4602 72.3693 32.6577 72.5511 32.8026C72.733 32.9474 73.017 33.0682 73.4034 33.1648L74.375 33.4034C74.9602 33.5455 75.3963 33.7628 75.6832 34.0554C75.9702 34.3452 76.1136 34.7187 76.1136 35.1761C76.1136 35.5511 76.0057 35.8864 75.7898 36.1818C75.5767 36.4773 75.2784 36.7102 74.8949 36.8807C74.5114 37.0511 74.0653 37.1364 73.5568 37.1364C72.8892 37.1364 72.3366 36.9915 71.8991 36.7017C71.4616 36.4119 71.1847 35.9886 71.0682 35.4318L72.0227 35.1932C72.1136 35.5455 72.2855 35.8097 72.5384 35.9858C72.794 36.1619 73.1278 36.25 73.5398 36.25C74.0085 36.25 74.3807 36.1506 74.6562 35.9517C74.9347 35.75 75.0739 35.5085 75.0739 35.2273C75.0739 35 74.9943 34.8097 74.8352 34.6562C74.6761 34.5 74.4318 34.3835 74.1023 34.3068L73.0114 34.0511C72.4119 33.9091 71.9716 33.6889 71.6903 33.3906C71.4119 33.0895 71.2727 32.7131 71.2727 32.2614C71.2727 31.892 71.3764 31.5653 71.5838 31.2812C71.794 30.9972 72.0795 30.7741 72.4403 30.6122C72.804 30.4503 73.2159 30.3693 73.6761 30.3693C74.3239 30.3693 74.8324 30.5114 75.2017 30.7955C75.5739 31.0795 75.8381 31.4545 75.9943 31.9205ZM80.2866 37.1364C79.6729 37.1364 79.1445 36.9915 78.7013 36.7017C78.2582 36.4119 77.9173 36.0128 77.6786 35.5043C77.44 34.9957 77.3207 34.4148 77.3207 33.7614C77.3207 33.0966 77.4428 32.5099 77.6871 32.0014C77.9343 31.4901 78.2781 31.0909 78.7184 30.804C79.1616 30.5142 79.6786 30.3693 80.2695 30.3693C80.7298 30.3693 81.1445 30.4545 81.5138 30.625C81.8832 30.7955 82.1857 31.0341 82.4215 31.3409C82.6573 31.6477 82.8036 32.0057 82.8604 32.4148H81.8548C81.7781 32.1165 81.6076 31.8523 81.3434 31.6222C81.082 31.3892 80.7298 31.2727 80.2866 31.2727C79.8945 31.2727 79.5508 31.375 79.2553 31.5795C78.9627 31.7812 78.734 32.0668 78.5692 32.4361C78.4073 32.8026 78.3263 33.233 78.3263 33.7273C78.3263 34.233 78.4059 34.6733 78.565 35.0483C78.7269 35.4233 78.9542 35.7145 79.2468 35.9219C79.5423 36.1293 79.8888 36.233 80.2866 36.233C80.5479 36.233 80.7852 36.1875 80.9982 36.0966C81.2113 36.0057 81.3917 35.875 81.5394 35.7045C81.6871 35.5341 81.7923 35.3295 81.8548 35.0909H82.8604C82.8036 35.4773 82.663 35.8253 82.4386 36.1349C82.217 36.4418 81.9229 36.6861 81.5565 36.8679C81.1928 37.0469 80.7695 37.1364 80.2866 37.1364ZM84.3306 37V30.4545H85.3022V31.4432H85.3704C85.4897 31.1193 85.7056 30.8565 86.0181 30.6548C86.3306 30.4531 86.6829 30.3523 87.0749 30.3523C87.1488 30.3523 87.2411 30.3537 87.3519 30.3565C87.4627 30.3594 87.5465 30.3636 87.6033 30.3693V31.392C87.5692 31.3835 87.4911 31.3707 87.369 31.3537C87.2496 31.3338 87.1232 31.3239 86.9897 31.3239C86.6715 31.3239 86.3874 31.3906 86.1374 31.5241C85.8903 31.6548 85.6942 31.8366 85.5494 32.0696C85.4073 32.2997 85.3363 32.5625 85.3363 32.858V37H84.3306ZM88.7955 37V30.4545H89.8011V37H88.7955ZM89.3068 29.3636C89.1108 29.3636 88.9418 29.2969 88.7997 29.1634C88.6605 29.0298 88.5909 28.8693 88.5909 28.6818C88.5909 28.4943 88.6605 28.3338 88.7997 28.2003C88.9418 28.0668 89.1108 28 89.3068 28C89.5028 28 89.6705 28.0668 89.8097 28.2003C89.9517 28.3338 90.0227 28.4943 90.0227 28.6818C90.0227 28.8693 89.9517 29.0298 89.8097 29.1634C89.6705 29.2969 89.5028 29.3636 89.3068 29.3636ZM91.6431 39.4545V30.4545H92.6147V31.4943H92.734C92.8079 31.3807 92.9102 31.2358 93.0408 31.0597C93.1744 30.8807 93.3647 30.7216 93.6119 30.5824C93.8619 30.4403 94.1999 30.3693 94.6261 30.3693C95.1772 30.3693 95.663 30.5071 96.0835 30.7827C96.5039 31.0582 96.832 31.4489 97.0678 31.9545C97.3036 32.4602 97.4215 33.0568 97.4215 33.7443C97.4215 34.4375 97.3036 35.0384 97.0678 35.5469C96.832 36.0526 96.5053 36.4446 96.0877 36.723C95.6701 36.9986 95.1886 37.1364 94.6431 37.1364C94.2227 37.1364 93.886 37.0668 93.6332 36.9276C93.3803 36.7855 93.1857 36.625 93.0494 36.446C92.913 36.2642 92.8079 36.1136 92.734 35.9943H92.6488V39.4545H91.6431ZM92.6317 33.7273C92.6317 34.2216 92.7042 34.6577 92.8491 35.0355C92.994 35.4105 93.2056 35.7045 93.484 35.9176C93.7624 36.1278 94.1033 36.233 94.5067 36.233C94.9272 36.233 95.2781 36.1222 95.5593 35.9006C95.8434 35.6761 96.0565 35.375 96.1985 34.9972C96.3434 34.6165 96.4158 34.1932 96.4158 33.7273C96.4158 33.267 96.3448 32.8523 96.2028 32.483C96.0636 32.1108 95.8519 31.8168 95.5678 31.6009C95.2866 31.3821 94.9329 31.2727 94.5067 31.2727C94.0977 31.2727 93.7539 31.3764 93.4755 31.5838C93.1971 31.7884 92.9869 32.0753 92.8448 32.4446C92.7028 32.8111 92.6317 33.2386 92.6317 33.7273ZM101.802 30.4545V31.3068H98.4102V30.4545H101.802ZM99.3988 28.8864H100.404V35.125C100.404 35.4091 100.446 35.6222 100.528 35.7642C100.613 35.9034 100.721 35.9972 100.852 36.0455C100.985 36.0909 101.126 36.1136 101.274 36.1136C101.385 36.1136 101.475 36.108 101.547 36.0966C101.618 36.0824 101.674 36.071 101.717 36.0625L101.922 36.9659C101.853 36.9915 101.758 37.017 101.636 37.0426C101.514 37.071 101.359 37.0852 101.172 37.0852C100.887 37.0852 100.609 37.0241 100.336 36.902C100.066 36.7798 99.842 36.5938 99.663 36.3438C99.4869 36.0938 99.3988 35.7784 99.3988 35.3977V28.8864ZM103.315 37V30.4545H104.321V37H103.315ZM103.826 29.3636C103.63 29.3636 103.461 29.2969 103.319 29.1634C103.18 29.0298 103.11 28.8693 103.11 28.6818C103.11 28.4943 103.18 28.3338 103.319 28.2003C103.461 28.0668 103.63 28 103.826 28C104.022 28 104.19 28.0668 104.329 28.2003C104.471 28.3338 104.542 28.4943 104.542 28.6818C104.542 28.8693 104.471 29.0298 104.329 29.1634C104.19 29.2969 104.022 29.3636 103.826 29.3636ZM108.822 37.1364C108.231 37.1364 107.712 36.9957 107.266 36.7145C106.823 36.4332 106.477 36.0398 106.227 35.5341C105.979 35.0284 105.856 34.4375 105.856 33.7614C105.856 33.0795 105.979 32.4844 106.227 31.9759C106.477 31.4673 106.823 31.0724 107.266 30.7912C107.712 30.5099 108.231 30.3693 108.822 30.3693C109.413 30.3693 109.93 30.5099 110.373 30.7912C110.819 31.0724 111.165 31.4673 111.413 31.9759C111.663 32.4844 111.788 33.0795 111.788 33.7614C111.788 34.4375 111.663 35.0284 111.413 35.5341C111.165 36.0398 110.819 36.4332 110.373 36.7145C109.93 36.9957 109.413 37.1364 108.822 37.1364ZM108.822 36.233C109.271 36.233 109.64 36.1179 109.93 35.8878C110.219 35.6577 110.434 35.3551 110.573 34.9801C110.712 34.6051 110.782 34.1989 110.782 33.7614C110.782 33.3239 110.712 32.9162 110.573 32.5384C110.434 32.1605 110.219 31.8551 109.93 31.6222C109.64 31.3892 109.271 31.2727 108.822 31.2727C108.373 31.2727 108.004 31.3892 107.714 31.6222C107.424 31.8551 107.21 32.1605 107.07 32.5384C106.931 32.9162 106.862 33.3239 106.862 33.7614C106.862 34.1989 106.931 34.6051 107.07 34.9801C107.21 35.3551 107.424 35.6577 107.714 35.8878C108.004 36.1179 108.373 36.233 108.822 36.233ZM114.328 33.0625V37H113.323V30.4545H114.294V31.4773H114.38C114.533 31.1449 114.766 30.8778 115.078 30.6761C115.391 30.4716 115.794 30.3693 116.289 30.3693C116.732 30.3693 117.12 30.4602 117.452 30.642C117.784 30.821 118.043 31.0938 118.228 31.4602C118.412 31.8239 118.505 32.2841 118.505 32.8409V37H117.499V32.9091C117.499 32.3949 117.365 31.9943 117.098 31.7074C116.831 31.4176 116.465 31.2727 115.999 31.2727C115.678 31.2727 115.391 31.3423 115.138 31.4815C114.888 31.6207 114.691 31.8239 114.546 32.0909C114.401 32.358 114.328 32.6818 114.328 33.0625Z" fill="black"/>
</svg>
