<svg width="142" height="46" viewBox="0 0 142 46" fill="none" xmlns="http://www.w3.org/2000/svg">
<path fill-rule="evenodd" clip-rule="evenodd" d="M23 0C35.7025 0 46 10.2975 46 23C46 35.7025 35.7025 46 23 46C10.2975 46 0 35.7025 0 23C0 10.2975 10.2975 0 23 0ZM23 1C10.8497 1 1 10.8497 1 23C1 35.1503 10.8497 45 23 45C35.1503 45 45 35.1503 45 23C45 10.8497 35.1503 1 23 1ZM31.4011 18.1812C31.0418 17.8092 30.5456 17.5894 29.981 17.5894H27.1407V17.5556C27.1407 17.1329 26.9696 16.7271 26.6787 16.4565C26.3878 16.1691 25.9943 16 25.5665 16H20.4335C19.9886 16 19.5951 16.1691 19.3042 16.4565C19.0133 16.744 18.8422 17.1329 18.8422 17.5556V17.5894H16.019C15.4544 17.5894 14.9582 17.8092 14.5989 18.1812C14.2395 18.5362 14 19.0435 14 19.5845V28.0048C14 28.5628 14.2224 29.0531 14.5989 29.4082C14.9582 29.7633 15.4715 30 16.019 30H29.981C30.5456 30 31.0418 29.7802 31.4011 29.4082C31.7605 29.0531 32 28.5459 32 28.0048V19.5845C32 19.0266 31.7776 18.5362 31.4011 18.1812ZM31.1103 28.0048H31.0932C31.0932 28.3092 30.9734 28.5797 30.7681 28.7826C30.5627 28.9855 30.289 29.1039 29.981 29.1039H16.019C15.711 29.1039 15.4373 28.9855 15.2319 28.7826C15.0266 28.5797 14.9068 28.3092 14.9068 28.0048V19.5845C14.9068 19.2802 15.0266 19.0097 15.2319 18.8068C15.4373 18.6039 15.711 18.4855 16.019 18.4855H19.3213C19.5779 18.4855 19.7833 18.2826 19.7833 18.029V17.5386C19.7833 17.3527 19.8517 17.1836 19.9715 17.0652C20.0913 16.9469 20.2624 16.8792 20.4506 16.8792H25.5665C25.7548 16.8792 25.9259 16.9469 26.0456 17.0652C26.1654 17.1836 26.2338 17.3527 26.2338 17.5386V18.029C26.2338 18.2826 26.4392 18.4855 26.6958 18.4855H29.9981C30.3061 18.4855 30.5798 18.6039 30.7852 18.8068C30.9905 19.0097 31.1103 19.2802 31.1103 19.5845V28.0048ZM23 20C21.8943 20 20.8862 20.4553 20.1707 21.1707C19.439 21.9024 19 22.8943 19 24C19 25.1057 19.4553 26.1138 20.1707 26.8293C20.9024 27.561 21.8943 28 23 28C24.1057 28 25.1138 27.5447 25.8293 26.8293C26.561 26.0976 27 25.1057 27 24C27 22.8943 26.5447 21.8862 25.8293 21.1707C25.1138 20.4553 24.1057 20 23 20ZM25.2114 26.2276C24.6423 26.7805 23.8618 27.1382 23 27.1382C22.1382 27.1382 21.3577 26.7805 20.7886 26.2276C20.2195 25.6585 19.878 24.878 19.878 24.0163C19.878 23.1545 20.2358 22.374 20.7886 21.8049C21.3577 21.2358 22.1382 20.8943 23 20.8943C23.8618 20.8943 24.6423 21.252 25.2114 21.8049C25.7805 22.374 26.122 23.1545 26.122 24.0163C26.1382 24.878 25.7805 25.6585 25.2114 26.2276ZM29 21C29.5523 21 30 20.5523 30 20C30 19.4477 29.5523 19 29 19C28.4477 19 28 19.4477 28 20C28 20.5523 28.4477 21 29 21Z" fill="black"/>
<path d="M56.5795 11.2102V10.2727H63.125V11.2102H60.3807V19H59.3239V11.2102H56.5795ZM65.6552 19.1534C65.2404 19.1534 64.864 19.0753 64.5259 18.919C64.1879 18.7599 63.9194 18.5312 63.7205 18.233C63.5217 17.9318 63.4222 17.5682 63.4222 17.142C63.4222 16.767 63.4961 16.4631 63.6438 16.2301C63.7915 15.9943 63.989 15.8097 64.2362 15.6761C64.4833 15.5426 64.756 15.4432 65.0543 15.3778C65.3555 15.3097 65.658 15.2557 65.962 15.2159C66.3597 15.1648 66.6822 15.1264 66.9293 15.1009C67.1793 15.0724 67.3612 15.0256 67.4748 14.9602C67.5913 14.8949 67.6495 14.7812 67.6495 14.6193V14.5852C67.6495 14.1648 67.5344 13.8381 67.3043 13.6051C67.0771 13.3722 66.7319 13.2557 66.2688 13.2557C65.7887 13.2557 65.4123 13.3608 65.1396 13.571C64.8668 13.7812 64.6751 14.0057 64.5643 14.2443L63.6097 13.9034C63.7802 13.5057 64.0075 13.196 64.2915 12.9744C64.5785 12.75 64.891 12.5937 65.229 12.5057C65.57 12.4148 65.9052 12.3693 66.2347 12.3693C66.445 12.3693 66.6864 12.3949 66.9592 12.446C67.2347 12.4943 67.5004 12.5952 67.756 12.7486C68.0146 12.902 68.229 13.1335 68.3995 13.4432C68.57 13.7528 68.6552 14.1676 68.6552 14.6875V19H67.6495V18.1136H67.5984C67.5302 18.2557 67.4165 18.4077 67.2575 18.5696C67.0984 18.7315 66.8867 18.8693 66.6225 18.983C66.3583 19.0966 66.0359 19.1534 65.6552 19.1534ZM65.8086 18.25C66.2063 18.25 66.5415 18.1719 66.8143 18.0156C67.0898 17.8594 67.2972 17.6577 67.4364 17.4105C67.5785 17.1634 67.6495 16.9034 67.6495 16.6307V15.7102C67.6069 15.7614 67.5131 15.8082 67.3683 15.8509C67.2262 15.8906 67.0614 15.9261 66.8739 15.9574C66.6893 15.9858 66.5089 16.0114 66.3327 16.0341C66.1594 16.054 66.0188 16.071 65.9109 16.0852C65.6495 16.1193 65.4052 16.1747 65.1779 16.2514C64.9535 16.3253 64.7717 16.4375 64.6325 16.5881C64.4961 16.7358 64.4279 16.9375 64.4279 17.1932C64.4279 17.5426 64.5572 17.8068 64.8157 17.9858C65.0771 18.1619 65.408 18.25 65.8086 18.25ZM71.4283 16.6136L71.4112 15.3693H71.6158L74.4794 12.4545H75.7237L72.6726 15.5398H72.5874L71.4283 16.6136ZM70.4908 19V10.2727H71.4964V19H70.4908ZM74.6499 19L72.093 15.7614L72.8089 15.0625L75.9283 19H74.6499ZM79.4929 19.1364C78.8622 19.1364 78.3182 18.9972 77.8608 18.7188C77.4062 18.4375 77.0554 18.0455 76.8082 17.5426C76.5639 17.0369 76.4418 16.4489 76.4418 15.7784C76.4418 15.108 76.5639 14.517 76.8082 14.0057C77.0554 13.4915 77.3991 13.0909 77.8395 12.804C78.2827 12.5142 78.7997 12.3693 79.3906 12.3693C79.7315 12.3693 80.0682 12.4261 80.4006 12.5398C80.733 12.6534 81.0355 12.8381 81.3082 13.0938C81.581 13.3466 81.7983 13.6818 81.9602 14.0994C82.1222 14.517 82.2031 15.0312 82.2031 15.642V16.0682H77.1577V15.1989H81.1804C81.1804 14.8295 81.1065 14.5 80.9588 14.2102C80.8139 13.9205 80.6065 13.6918 80.3366 13.5241C80.0696 13.3565 79.7543 13.2727 79.3906 13.2727C78.9901 13.2727 78.6435 13.3722 78.3509 13.571C78.0611 13.767 77.8381 14.0227 77.6818 14.3381C77.5256 14.6534 77.4474 14.9915 77.4474 15.3523V15.9318C77.4474 16.4261 77.5327 16.8452 77.7031 17.1889C77.8764 17.5298 78.1165 17.7898 78.4233 17.9688C78.7301 18.1449 79.0866 18.233 79.4929 18.233C79.7571 18.233 79.9957 18.196 80.2088 18.1222C80.4247 18.0455 80.6108 17.9318 80.767 17.7812C80.9233 17.6278 81.044 17.4375 81.1293 17.2102L82.1009 17.483C81.9986 17.8125 81.8267 18.1023 81.5852 18.3523C81.3438 18.5994 81.0455 18.7926 80.6903 18.9318C80.3352 19.0682 79.9361 19.1364 79.4929 19.1364ZM87.108 21.4545V12.4545H88.0795V13.4943H88.1989C88.2727 13.3807 88.375 13.2358 88.5057 13.0597C88.6392 12.8807 88.8295 12.7216 89.0767 12.5824C89.3267 12.4403 89.6648 12.3693 90.0909 12.3693C90.642 12.3693 91.1278 12.5071 91.5483 12.7827C91.9688 13.0582 92.2969 13.4489 92.5327 13.9545C92.7685 14.4602 92.8864 15.0568 92.8864 15.7443C92.8864 16.4375 92.7685 17.0384 92.5327 17.5469C92.2969 18.0526 91.9702 18.4446 91.5526 18.723C91.1349 18.9986 90.6534 19.1364 90.108 19.1364C89.6875 19.1364 89.3509 19.0668 89.098 18.9276C88.8452 18.7855 88.6506 18.625 88.5142 18.446C88.3778 18.2642 88.2727 18.1136 88.1989 17.9943H88.1136V21.4545H87.108ZM88.0966 15.7273C88.0966 16.2216 88.169 16.6577 88.3139 17.0355C88.4588 17.4105 88.6705 17.7045 88.9489 17.9176C89.2273 18.1278 89.5682 18.233 89.9716 18.233C90.392 18.233 90.7429 18.1222 91.0241 17.9006C91.3082 17.6761 91.5213 17.375 91.6634 16.9972C91.8082 16.6165 91.8807 16.1932 91.8807 15.7273C91.8807 15.267 91.8097 14.8523 91.6676 14.483C91.5284 14.1108 91.3168 13.8168 91.0327 13.6009C90.7514 13.3821 90.3977 13.2727 89.9716 13.2727C89.5625 13.2727 89.2188 13.3764 88.9403 13.5838C88.6619 13.7884 88.4517 14.0753 88.3097 14.4446C88.1676 14.8111 88.0966 15.2386 88.0966 15.7273ZM95.4261 15.0625V19H94.4205V10.2727H95.4261V13.4773H95.5114C95.6648 13.1392 95.8949 12.8707 96.2017 12.6719C96.5114 12.4702 96.9233 12.3693 97.4375 12.3693C97.8835 12.3693 98.2741 12.4588 98.6094 12.6378C98.9446 12.8139 99.2045 13.0852 99.3892 13.4517C99.5767 13.8153 99.6705 14.2784 99.6705 14.8409V19H98.6648V14.9091C98.6648 14.3892 98.5298 13.9872 98.2599 13.7031C97.9929 13.4162 97.6222 13.2727 97.1477 13.2727C96.8182 13.2727 96.5227 13.3423 96.2614 13.4815C96.0028 13.6207 95.7983 13.8239 95.6477 14.0909C95.5 14.358 95.4261 14.6818 95.4261 15.0625ZM104.169 19.1364C103.578 19.1364 103.06 18.9957 102.614 18.7145C102.171 18.4332 101.824 18.0398 101.574 17.5341C101.327 17.0284 101.203 16.4375 101.203 15.7614C101.203 15.0795 101.327 14.4844 101.574 13.9759C101.824 13.4673 102.171 13.0724 102.614 12.7912C103.06 12.5099 103.578 12.3693 104.169 12.3693C104.76 12.3693 105.277 12.5099 105.721 12.7912C106.167 13.0724 106.513 13.4673 106.76 13.9759C107.01 14.4844 107.135 15.0795 107.135 15.7614C107.135 16.4375 107.01 17.0284 106.76 17.5341C106.513 18.0398 106.167 18.4332 105.721 18.7145C105.277 18.9957 104.76 19.1364 104.169 19.1364ZM104.169 18.233C104.618 18.233 104.988 18.1179 105.277 17.8878C105.567 17.6577 105.782 17.3551 105.921 16.9801C106.06 16.6051 106.13 16.1989 106.13 15.7614C106.13 15.3239 106.06 14.9162 105.921 14.5384C105.782 14.1605 105.567 13.8551 105.277 13.6222C104.988 13.3892 104.618 13.2727 104.169 13.2727C103.721 13.2727 103.351 13.3892 103.061 13.6222C102.772 13.8551 102.557 14.1605 102.418 14.5384C102.279 14.9162 102.209 15.3239 102.209 15.7614C102.209 16.1989 102.279 16.6051 102.418 16.9801C102.557 17.3551 102.772 17.6577 103.061 17.8878C103.351 18.1179 103.721 18.233 104.169 18.233ZM111.517 12.4545V13.3068H108.125V12.4545H111.517ZM109.114 10.8864H110.119V17.125C110.119 17.4091 110.161 17.6222 110.243 17.7642C110.328 17.9034 110.436 17.9972 110.567 18.0455C110.7 18.0909 110.841 18.1136 110.989 18.1136C111.099 18.1136 111.19 18.108 111.261 18.0966C111.332 18.0824 111.389 18.071 111.432 18.0625L111.636 18.9659C111.568 18.9915 111.473 19.017 111.351 19.0426C111.229 19.071 111.074 19.0852 110.886 19.0852C110.602 19.0852 110.324 19.0241 110.051 18.902C109.781 18.7798 109.557 18.5938 109.378 18.3438C109.202 18.0938 109.114 17.7784 109.114 17.3977V10.8864ZM115.619 19.1364C115.028 19.1364 114.509 18.9957 114.063 18.7145C113.62 18.4332 113.273 18.0398 113.023 17.5341C112.776 17.0284 112.653 16.4375 112.653 15.7614C112.653 15.0795 112.776 14.4844 113.023 13.9759C113.273 13.4673 113.62 13.0724 114.063 12.7912C114.509 12.5099 115.028 12.3693 115.619 12.3693C116.21 12.3693 116.727 12.5099 117.17 12.7912C117.616 13.0724 117.962 13.4673 118.21 13.9759C118.46 14.4844 118.585 15.0795 118.585 15.7614C118.585 16.4375 118.46 17.0284 118.21 17.5341C117.962 18.0398 117.616 18.4332 117.17 18.7145C116.727 18.9957 116.21 19.1364 115.619 19.1364ZM115.619 18.233C116.067 18.233 116.437 18.1179 116.727 17.8878C117.016 17.6577 117.231 17.3551 117.37 16.9801C117.509 16.6051 117.579 16.1989 117.579 15.7614C117.579 15.3239 117.509 14.9162 117.37 14.5384C117.231 14.1605 117.016 13.8551 116.727 13.6222C116.437 13.3892 116.067 13.2727 115.619 13.2727C115.17 13.2727 114.8 13.3892 114.511 13.6222C114.221 13.8551 114.006 14.1605 113.867 14.5384C113.728 14.9162 113.658 15.3239 113.658 15.7614C113.658 16.1989 113.728 16.6051 113.867 16.9801C114.006 17.3551 114.221 17.6577 114.511 17.8878C114.8 18.1179 115.17 18.233 115.619 18.233ZM126.154 19.1364C125.563 19.1364 125.044 18.9957 124.598 18.7145C124.155 18.4332 123.809 18.0398 123.559 17.5341C123.311 17.0284 123.188 16.4375 123.188 15.7614C123.188 15.0795 123.311 14.4844 123.559 13.9759C123.809 13.4673 124.155 13.0724 124.598 12.7912C125.044 12.5099 125.563 12.3693 126.154 12.3693C126.745 12.3693 127.262 12.5099 127.705 12.7912C128.151 13.0724 128.498 13.4673 128.745 13.9759C128.995 14.4844 129.12 15.0795 129.12 15.7614C129.12 16.4375 128.995 17.0284 128.745 17.5341C128.498 18.0398 128.151 18.4332 127.705 18.7145C127.262 18.9957 126.745 19.1364 126.154 19.1364ZM126.154 18.233C126.603 18.233 126.972 18.1179 127.262 17.8878C127.551 17.6577 127.766 17.3551 127.905 16.9801C128.044 16.6051 128.114 16.1989 128.114 15.7614C128.114 15.3239 128.044 14.9162 127.905 14.5384C127.766 14.1605 127.551 13.8551 127.262 13.6222C126.972 13.3892 126.603 13.2727 126.154 13.2727C125.705 13.2727 125.336 13.3892 125.046 13.6222C124.756 13.8551 124.542 14.1605 124.402 14.5384C124.263 14.9162 124.194 15.3239 124.194 15.7614C124.194 16.1989 124.263 16.6051 124.402 16.9801C124.542 17.3551 124.756 17.6577 125.046 17.8878C125.336 18.1179 125.705 18.233 126.154 18.233ZM133.57 12.4545V13.3068H130.041V12.4545H133.57ZM131.098 19V11.5511C131.098 11.1761 131.186 10.8636 131.362 10.6136C131.538 10.3636 131.767 10.1761 132.048 10.0511C132.33 9.92614 132.626 9.86364 132.939 9.86364C133.186 9.86364 133.388 9.88352 133.544 9.9233C133.7 9.96307 133.817 10 133.893 10.0341L133.604 10.9034C133.553 10.8864 133.482 10.8651 133.391 10.8395C133.303 10.8139 133.186 10.8011 133.041 10.8011C132.709 10.8011 132.469 10.8849 132.321 11.0526C132.176 11.2202 132.104 11.4659 132.104 11.7898V19H131.098ZM57.0568 35V26.2727H58.0625V29.4943H58.1477C58.2216 29.3807 58.3239 29.2358 58.4545 29.0597C58.5881 28.8807 58.7784 28.7216 59.0256 28.5824C59.2756 28.4403 59.6136 28.3693 60.0398 28.3693C60.5909 28.3693 61.0767 28.5071 61.4972 28.7827C61.9176 29.0582 62.2457 29.4489 62.4815 29.9545C62.7173 30.4602 62.8352 31.0568 62.8352 31.7443C62.8352 32.4375 62.7173 33.0384 62.4815 33.5469C62.2457 34.0526 61.919 34.4446 61.5014 34.723C61.0838 34.9986 60.6023 35.1364 60.0568 35.1364C59.6364 35.1364 59.2997 35.0668 59.0469 34.9276C58.794 34.7855 58.5994 34.625 58.4631 34.446C58.3267 34.2642 58.2216 34.1136 58.1477 33.9943H58.0284V35H57.0568ZM58.0455 31.7273C58.0455 32.2216 58.1179 32.6577 58.2628 33.0355C58.4077 33.4105 58.6193 33.7045 58.8977 33.9176C59.1761 34.1278 59.517 34.233 59.9205 34.233C60.3409 34.233 60.6918 34.1222 60.973 33.9006C61.2571 33.6761 61.4702 33.375 61.6122 32.9972C61.7571 32.6165 61.8295 32.1932 61.8295 31.7273C61.8295 31.267 61.7585 30.8523 61.6165 30.483C61.4773 30.1108 61.2656 29.8168 60.9815 29.6009C60.7003 29.3821 60.3466 29.2727 59.9205 29.2727C59.5114 29.2727 59.1676 29.3764 58.8892 29.5838C58.6108 29.7884 58.4006 30.0753 58.2585 30.4446C58.1165 30.8111 58.0455 31.2386 58.0455 31.7273ZM67.0327 35.1364C66.4418 35.1364 65.9233 34.9957 65.4773 34.7145C65.0341 34.4332 64.6875 34.0398 64.4375 33.5341C64.1903 33.0284 64.0668 32.4375 64.0668 31.7614C64.0668 31.0795 64.1903 30.4844 64.4375 29.9759C64.6875 29.4673 65.0341 29.0724 65.4773 28.7912C65.9233 28.5099 66.4418 28.3693 67.0327 28.3693C67.6236 28.3693 68.1406 28.5099 68.5838 28.7912C69.0298 29.0724 69.3764 29.4673 69.6236 29.9759C69.8736 30.4844 69.9986 31.0795 69.9986 31.7614C69.9986 32.4375 69.8736 33.0284 69.6236 33.5341C69.3764 34.0398 69.0298 34.4332 68.5838 34.7145C68.1406 34.9957 67.6236 35.1364 67.0327 35.1364ZM67.0327 34.233C67.4815 34.233 67.8509 34.1179 68.1406 33.8878C68.4304 33.6577 68.6449 33.3551 68.7841 32.9801C68.9233 32.6051 68.9929 32.1989 68.9929 31.7614C68.9929 31.3239 68.9233 30.9162 68.7841 30.5384C68.6449 30.1605 68.4304 29.8551 68.1406 29.6222C67.8509 29.3892 67.4815 29.2727 67.0327 29.2727C66.5838 29.2727 66.2145 29.3892 65.9247 29.6222C65.6349 29.8551 65.4205 30.1605 65.2812 30.5384C65.142 30.9162 65.0724 31.3239 65.0724 31.7614C65.0724 32.1989 65.142 32.6051 65.2812 32.9801C65.4205 33.3551 65.6349 33.6577 65.9247 33.8878C66.2145 34.1179 66.5838 34.233 67.0327 34.233ZM75.6587 32.3239V28.4545H76.6644V35H75.6587V33.892H75.5906C75.4371 34.2244 75.1985 34.5071 74.8746 34.7401C74.5508 34.9702 74.1417 35.0852 73.6474 35.0852C73.2383 35.0852 72.8746 34.9957 72.5565 34.8168C72.2383 34.6349 71.9883 34.3622 71.8065 33.9986C71.6246 33.6321 71.5337 33.1705 71.5337 32.6136V28.4545H72.5394V32.5455C72.5394 33.0227 72.6729 33.4034 72.94 33.6875C73.2099 33.9716 73.5536 34.1136 73.9712 34.1136C74.2212 34.1136 74.4755 34.0497 74.734 33.9219C74.9954 33.794 75.2141 33.598 75.3903 33.3338C75.5692 33.0696 75.6587 32.733 75.6587 32.3239ZM82.9723 37.4545V33.9943H82.8871C82.8132 34.1136 82.7081 34.2642 82.5717 34.446C82.4354 34.625 82.2408 34.7855 81.9879 34.9276C81.7351 35.0668 81.3984 35.1364 80.978 35.1364C80.4325 35.1364 79.951 34.9986 79.5334 34.723C79.1158 34.4446 78.7891 34.0526 78.5533 33.5469C78.3175 33.0384 78.1996 32.4375 78.1996 31.7443C78.1996 31.0568 78.3175 30.4602 78.5533 29.9545C78.7891 29.4489 79.1172 29.0582 79.5376 28.7827C79.9581 28.5071 80.4439 28.3693 80.995 28.3693C81.4212 28.3693 81.7578 28.4403 82.005 28.5824C82.255 28.7216 82.4453 28.8807 82.576 29.0597C82.7095 29.2358 82.8132 29.3807 82.8871 29.4943H83.0064V28.4545H83.978V37.4545H82.9723ZM81.1143 34.233C81.5178 34.233 81.8587 34.1278 82.1371 33.9176C82.4155 33.7045 82.6271 33.4105 82.772 33.0355C82.9169 32.6577 82.9893 32.2216 82.9893 31.7273C82.9893 31.2386 82.9183 30.8111 82.7763 30.4446C82.6342 30.0753 82.424 29.7884 82.1456 29.5838C81.8672 29.3764 81.5234 29.2727 81.1143 29.2727C80.6882 29.2727 80.3331 29.3821 80.049 29.6009C79.7678 29.8168 79.5561 30.1108 79.4141 30.483C79.2749 30.8523 79.2053 31.267 79.2053 31.7273C79.2053 32.1932 79.2763 32.6165 79.4183 32.9972C79.5632 33.375 79.7763 33.6761 80.0575 33.9006C80.3416 34.1222 80.6939 34.233 81.1143 34.233ZM89.9439 32.3239V28.4545H90.9496V35H89.9439V33.892H89.8757C89.7223 34.2244 89.4837 34.5071 89.1598 34.7401C88.8359 34.9702 88.4268 35.0852 87.9325 35.0852C87.5234 35.0852 87.1598 34.9957 86.8416 34.8168C86.5234 34.6349 86.2734 34.3622 86.0916 33.9986C85.9098 33.6321 85.8189 33.1705 85.8189 32.6136V28.4545H86.8246V32.5455C86.8246 33.0227 86.9581 33.4034 87.2251 33.6875C87.495 33.9716 87.8388 34.1136 88.2564 34.1136C88.5064 34.1136 88.7607 34.0497 89.0192 33.9219C89.2805 33.794 89.4993 33.598 89.6754 33.3338C89.8544 33.0696 89.9439 32.733 89.9439 32.3239ZM95.5359 35.1364C94.9052 35.1364 94.3612 34.9972 93.9038 34.7188C93.4492 34.4375 93.0984 34.0455 92.8512 33.5426C92.6069 33.0369 92.4847 32.4489 92.4847 31.7784C92.4847 31.108 92.6069 30.517 92.8512 30.0057C93.0984 29.4915 93.4421 29.0909 93.8825 28.804C94.3256 28.5142 94.8427 28.3693 95.4336 28.3693C95.7745 28.3693 96.1112 28.4261 96.4435 28.5398C96.7759 28.6534 97.0785 28.8381 97.3512 29.0938C97.6239 29.3466 97.8413 29.6818 98.0032 30.0994C98.1651 30.517 98.2461 31.0312 98.2461 31.642V32.0682H93.2006V31.1989H97.2234C97.2234 30.8295 97.1495 30.5 97.0018 30.2102C96.8569 29.9205 96.6495 29.6918 96.3796 29.5241C96.1126 29.3565 95.7972 29.2727 95.4336 29.2727C95.033 29.2727 94.6864 29.3722 94.3938 29.571C94.104 29.767 93.881 30.0227 93.7248 30.3381C93.5685 30.6534 93.4904 30.9915 93.4904 31.3523V31.9318C93.4904 32.4261 93.5756 32.8452 93.7461 33.1889C93.9194 33.5298 94.1594 33.7898 94.4663 33.9688C94.7731 34.1449 95.1296 34.233 95.5359 34.233C95.8001 34.233 96.0387 34.196 96.2518 34.1222C96.4677 34.0455 96.6538 33.9318 96.81 33.7812C96.9663 33.6278 97.087 33.4375 97.1722 33.2102L98.1438 33.483C98.0415 33.8125 97.8697 34.1023 97.6282 34.3523C97.3867 34.5994 97.0884 34.7926 96.7333 34.9318C96.3782 35.0682 95.979 35.1364 95.5359 35.1364ZM102.623 28.4545V29.3068H99.2305V28.4545H102.623ZM100.219 26.8864H101.225V33.125C101.225 33.4091 101.266 33.6222 101.348 33.7642C101.434 33.9034 101.542 33.9972 101.672 34.0455C101.806 34.0909 101.946 34.1136 102.094 34.1136C102.205 34.1136 102.296 34.108 102.367 34.0966C102.438 34.0824 102.495 34.071 102.537 34.0625L102.742 34.9659C102.674 34.9915 102.578 35.017 102.456 35.0426C102.334 35.071 102.179 35.0852 101.992 35.0852C101.708 35.0852 101.429 35.0241 101.157 34.902C100.887 34.7798 100.662 34.5938 100.483 34.3438C100.307 34.0938 100.219 33.7784 100.219 33.3977V26.8864Z" fill="black"/>
</svg>
